inDegrees=no
num_controls=7
num_derivatives=13
num_iterations=129
num_multipliers=7
num_parameters=0
num_slacks=7
num_states=26
objective=5.337020
objective_accelerations=0.418549
objective_balance=0.009871
objective_effort=0.375659
objective_height=4.433667
objective_ligament=0.099274
solver_duration=1096.772112
status=Solve_Succeeded
success=true
DataType=double
version=3
OpenSimVersion=4.4-2022-07-23-0e9fedc
endheader
time	/jointset/ground_pelvis/pelvis_tilt/value	/jointset/ground_pelvis/pelvis_tx/value	/jointset/ground_pelvis/pelvis_ty/value	/jointset/hip_r/hip_flexion_r/value	/jointset/hip_r/hip_adduction_r/value	/jointset/hip_r/hip_rotation_r/value	/jointset/back/lumbar_extension/value	/jointset/patellofemoral_r/patellar_flexion_r/value	/jointset/knee_r/knee_flexion_r/value	/jointset/knee_r/knee_adduction_r/value	/jointset/knee_r/knee_rotation_r/value	/jointset/ankle_r/ankle_angle_r/value	/jointset/subtalar_r/subtalar_angle_r/value	/jointset/ground_pelvis/pelvis_tilt/speed	/jointset/ground_pelvis/pelvis_tx/speed	/jointset/ground_pelvis/pelvis_ty/speed	/jointset/hip_r/hip_flexion_r/speed	/jointset/hip_r/hip_adduction_r/speed	/jointset/hip_r/hip_rotation_r/speed	/jointset/back/lumbar_extension/speed	/jointset/patellofemoral_r/patellar_flexion_r/speed	/jointset/knee_r/knee_flexion_r/speed	/jointset/knee_r/knee_adduction_r/speed	/jointset/knee_r/knee_rotation_r/speed	/jointset/ankle_r/ankle_angle_r/speed	/jointset/subtalar_r/subtalar_angle_r/speed	/forceset/tau_hip_flexion_r	/forceset/tau_hip_adduction_r	/forceset/tau_hip_rotation_r	/forceset/tau_knee_flexion_r	/forceset/tau_ankle_angle_r	/forceset/tau_subtalar_angle_r	/forceset/tau_lumbar_extension	lambda_cid13_p0	lambda_cid14_p0	lambda_cid14_p1	lambda_cid14_p2	lambda_cid14_p3	lambda_cid14_p4	lambda_cid14_p5	/jointset/ground_pelvis/pelvis_tilt/accel	/jointset/ground_pelvis/pelvis_tx/accel	/jointset/ground_pelvis/pelvis_ty/accel	/jointset/hip_r/hip_flexion_r/accel	/jointset/hip_r/hip_adduction_r/accel	/jointset/hip_r/hip_rotation_r/accel	/jointset/back/lumbar_extension/accel	/jointset/patellofemoral_r/patellar_flexion_r/accel	/jointset/knee_r/knee_flexion_r/accel	/jointset/knee_r/knee_adduction_r/accel	/jointset/knee_r/knee_rotation_r/accel	/jointset/ankle_r/ankle_angle_r/accel	/jointset/subtalar_r/subtalar_angle_r/accel	gamma_cid13_p0	gamma_cid14_p0	gamma_cid14_p1	gamma_cid14_p2	gamma_cid14_p3	gamma_cid14_p4	gamma_cid14_p5
0	-0.0049577327409426	0.1305108601022313	0.933680460830563	0.1934208783645156	-0.2247013178117402	-0.2441404575984709	-0.2903791543005566	0.2311793314021889	0.2311793314021609	0.1246491518305846	0.1736668918890597	0.08934340440958972	0.06822387767495623	0	0	0	0	0	0	0	0	0	0	0	0	0	0.1006702242450224	-0.0658865790098898	0.0008011402373509699	-0.2521041103662973	0.1437942212391698	-0.07922574876987902	-0.01815668360250336	-29.92625503744094	0.2306929285079976	-29.68715313965118	-0.1910328178489518	-10.60240588325486	-615.6447143565072	51.47764995713828	-0.9605535435318409	-1.311332333416233	-0.6878440979836318	7.444409944567203	-0.2440654469176119	2.169171830610519	-5.812233470141654	8.726564619361673	8.726564619362604	-1.762054204739611	0.1929393587872831	2.728924084760251	0.4704109084330003	3.227746165359005e-08	1.377803615285626e-08	-2.542106677798559e-07	1.518748221778678e-07	1.437533853885001e-08	9.631728795177254e-08	-2.04979081178054e-07
0.01	-0.005001213824873889	0.1304461709021801	0.9336470785256962	0.1937823888556592	-0.2247124174219042	-0.2440310276024142	-0.2906696923194836	0.2316065846587524	0.231606584658768	0.1245613663011488	0.1736726671730878	0.08947712904118078	0.06824794771948617	-0.008662916900897103	-0.01287014819953113	-0.006653550319714514	0.07193830952817171	-0.00223747937999493	0.02181272700687796	-0.05765977622565077	0.08501473345687656	0.08501473345687914	-0.01739189722322341	0.001122515522327699	0.02659895550911039	0.004750664644189239	0.09568730508055039	-0.07239366501834944	0.001325596751699996	-0.2461428733345674	0.1338657391332381	-0.07067654408277388	-0.01386648038612088	-29.93072565958229	-2.563663601542822	-26.21977203696423	-1.022230493005474	-9.405223295791018	-617.3009923102177	58.19326895992315	-0.8141671482641323	-1.264699418022169	-0.6506546373812546	7.013973060152362	-0.2162329228728308	2.176365140132999	-5.675675563746449	8.323533573937832	8.323533573937569	-1.703002094795189	0.06705755444452971	2.603490829272609	0.467870616508782	4.282915302901717e-08	3.153416389199421e-09	-3.30295565365026e-07	1.616754768037544e-07	3.085888087967293e-08	-2.489747283300995e-09	-2.401025409014631e-07
0.02	-0.005130325354830333	0.1302548115491723	0.9335478518899489	0.1948523687627465	-0.2247464205737416	-0.2437056619354211	-0.2915233932736609	0.2328709064230016	0.2328709064230064	0.1243046128769677	0.1736886975932098	0.08987246513691532	0.0683176196852773	-0.01712608919752136	-0.0253340305913219	-0.01316886617610624	0.1416938831847408	-0.004580708333302218	0.04318713419004452	-0.1126325870500115	0.1674137015172479	0.1674137015172443	-0.03379357899370753	0.002051027264221732	0.05232229282966536	0.009120384252251122	0.09070438591650525	-0.07890075102677814	0.001850053265225126	-0.2401816363025788	0.1239372570273913	-0.06212733939559024	-0.009576277169445131	-29.94371251381428	-5.29125213832553	-22.75523230339537	-1.83637522985438	-8.217001606258071	-617.9145489762992	64.70276379284242	-0.9206046226766481	-1.230079171868689	-0.6601972053190462	7.007862770246726	-0.2652153615801306	2.081507865868268	-5.274840389883258	8.203411540060776	8.203411540059964	-1.564011114191701	0.1541386027006165	2.55380044704862	0.3942219012073111	5.338084440444428e-08	-7.471203374457415e-09	-4.063804629501961e-07	1.714761314296411e-07	4.734242322049585e-08	-1.012967825183745e-07	-2.752260006248722e-07
0.03	-0.005343306061236686	0.1299408671540527	0.9333839171116276	0.1966096859628319	-0.2248044944604264	-0.2431691041232353	-0.2929142875008152	0.2349470298363656	0.2349470298363705	0.123888909129457	0.1737135505165534	0.09052103695749732	0.06842907312466893	-0.02543134364540253	-0.03738415454180288	-0.01961415700243995	0.2094375096450925	-0.007047854930359656	0.06404049211386535	-0.1652195776131386	0.2474466564037335	0.247446656403728	-0.0491961306379121	0.002901591028002529	0.07728492798986956	0.01312376965579288	0.08698131371930222	-0.07494869585567941	0.002129075716715717	-0.2371499750000724	0.1204841793509518	-0.06292305717904088	-0.00632000327034726	-29.96461257947592	-6.461015464841	-23.29944389691384	-1.756679023808245	-7.88968948903015	-618.4678644606802	62.89247119941636	-0.7796764791559656	-1.181865389254017	-0.6361258069387968	6.607806219893835	-0.2395547445195454	2.074699875944373	-5.201626273349192	7.848578032098965	7.848578032099372	-1.505768058551631	0.04785738423149076	2.451431131462551	0.396373492733605	5.625112883258283e-08	-1.615713033467813e-08	-4.256778352067594e-07	1.617780494763382e-07	5.635816837200793e-08	-1.734997207626859e-07	-2.751426121558543e-07
0.04	-0.005638177436818074	0.1295085442429043	0.9331556432679132	0.1990344781546934	-0.2248876579002154	-0.2424265227077315	-0.294821251210368	0.2378125509124044	0.2378125509124104	0.1233237016913878	0.1737463775018351	0.09141602234588322	0.06857915574465703	-0.03350422302561798	-0.0490097337970704	-0.02603667925471553	0.2751888815440703	-0.009598618957402723	0.08439185484990373	-0.2158464835290639	0.3252932340564831	0.3252932340564797	-0.06369431704275751	0.003645839632357889	0.1016050063883175	0.01684622037155956	0.08325824152205459	-0.07099664068475207	0.002408098168530321	-0.234118313697654	0.1170311016744225	-0.06371877496273114	-0.003063729371202675	-29.99252228541869	-7.569359945568672	-23.84775865853321	-1.65935735776002	-7.57702199222578	-618.0644015967707	60.89376159877983	-0.8741296091429296	-1.145170232826471	-0.6556434905073932	6.609411857971994	-0.2819388475773	1.981108828311831	-4.882823460442529	7.766136093313714	7.7661360933137	-1.383138066319814	0.1328755708155789	2.425289094696878	0.3380349636520956	5.896303373603502e-08	-2.480308424740532e-08	-4.438043306524237e-07	1.516779317172788e-07	6.521993832374042e-08	-2.451541209247135e-07	-2.743333092911162e-07
0.05	-0.006012964637574117	0.1289620780712713	0.9328630976475216	0.2021071713210519	-0.2249968732518405	-0.2414833409526051	-0.2972240665082341	0.2414455739908124	0.2414455739907821	0.1226184266581291	0.1737864996962982	0.09255084012978664	0.06876486563810769	-0.04141824028054109	-0.0602129479478554	-0.03247856252868225	0.3390125136045989	-0.01224791207153588	0.1041568302580949	-0.2643616274863625	0.4009218355575868	0.4009218355575864	-0.0772119559329907	0.004345599938050126	0.1252376090591931	0.02025817622672614	0.07871938688747752	-0.06918520083060661	0.002814981141035162	-0.2305839780542454	0.1118609800395176	-0.06204483657545162	0.000797060280546598	-30.02647097678449	-9.118937852863418	-23.34991275114808	-1.78690114983505	-7.024990407909254	-618.1034258886068	61.00956476929361	-0.7447852336346535	-1.097301004526594	-0.639428011387843	6.218254222776755	-0.2569710519421393	1.961080326956158	-4.782617578687041	7.40277845464909	7.402778454649668	-1.313820453590493	0.03361028392684061	2.314112284140099	0.3370875005377943	5.784487995310602e-08	-3.340903873835169e-08	-4.373629911653179e-07	1.257305412871446e-07	7.112915437227468e-08	-3.067968553250198e-07	-2.529264244995798e-07
0.06	-0.00646584150090722	0.1283056989584649	0.9325059397412806	0.2058079838765415	-0.2251326908363267	-0.2403451317574314	-0.3001013847887443	0.2458231943394317	0.2458231943394381	0.1217824265054267	0.173832636298548	0.09391835722656355	0.06898355741092786	-0.04912215553407566	-0.0709923220317203	-0.03895913642459833	0.4008127593724644	-0.01491906553014412	0.1233973428616306	-0.3107470800561334	0.4742126881043107	0.4742126881043134	-0.08983934095185268	0.004848721182961436	0.1481448689643551	0.02344259624544829	0.07418053225303579	-0.06737376097636207	0.003221864113789532	-0.2270496424107794	0.1066908584046706	-0.06037089818803857	0.004657849932348863	-30.06515545833519	-10.61239274188737	-22.85423991690633	-1.900391211104429	-6.495236768541884	-617.2770490528277	60.96486777806874	-0.8321092088646854	-1.060402219442869	-0.6633816148972407	6.204734599439407	-0.2863109164723482	1.876216267380779	-4.456885182936624	7.298586302437892	7.298586302437889	-1.20508729204553	0.09354775865940711	2.280220541553735	0.292527796363039	5.656546054127676e-08	-4.20133090431178e-08	-4.298872165231481e-07	9.911589727085984e-08	7.69140523617269e-08	-3.680180459037799e-07	-2.306522731005993e-07
0.07000000000000001	-0.00699503716812524	0.1275436333216981	0.9320836232398912	0.2101172661119177	-0.2252954957914597	-0.2390174727498003	-0.3034318241647384	0.2509224849846644	0.2509224849846202	0.1208249245007136	0.1738833145253432	0.09551140809753025	0.0692327815493394	-0.05668138134173602	-0.08135011243058302	-0.04551984847665264	0.4607155577163904	-0.01764075213494181	0.1420364721283117	-0.3550126570564813	0.5452693908127467	0.5452693908127502	-0.101517131109859	0.005261433652673588	0.1703498275884568	0.02637214935570919	0.0696133624403107	-0.06499942955357033	0.003630415595103651	-0.2242425553223814	0.102286503519113	-0.05907729548610141	0.008519694548202955	-30.10722929482787	-11.90352809911051	-22.50984493759344	-1.965179818925394	-6.093172922361259	-616.7873423542777	60.62580574862264	-0.7124817549565093	-1.012848064563805	-0.6548430394940605	5.83383388119677	-0.264953046438582	1.84309260468724	-4.362173244699335	6.952793439213058	6.952793439213316	-1.127591391276223	0.0113334641174816	2.173318617567913	0.2886019692269586	5.016694994403724e-08	-5.014224297465269e-08	-3.873702545271483e-07	5.289723630342971e-08	7.834299692490296e-08	-4.147210903128347e-07	-1.811401222904984e-07
0.08	-0.007598755591099207	0.1266801136580505	0.9315952142101539	0.2150157326165834	-0.2254854887154252	-0.2375063561798387	-0.3071950751679692	0.256721058893759	0.2567210588937652	0.1197549512917838	0.1739373599715192	0.09732304557367624	0.06951038779902773	-0.0640267066788973	-0.09128312740786557	-0.05217764209421157	0.518649613233416	-0.02035665929799673	0.1600888553300162	-0.397309405501384	0.6140693408878501	0.6140693408878547	-0.1123335818118046	0.005522165041983431	0.1918621900017387	0.02911901850074787	0.06504619262766292	-0.06262509813065112	0.00403896707689519	-0.2214354682339681	0.09788214863361155	-0.0577836927840004	0.01238153916405933	-30.15111930976355	-13.14414886994451	-22.16739555089628	-2.017332645846654	-5.718294998144408	-615.5235434433371	60.15110037164855	-0.7893291147643688	-0.9754471351272114	-0.6827979279981462	5.810986034059296	-0.2851550281238033	1.758867054385512	-4.063119471847289	6.847235775771508	6.847235775771551	-1.032819400833376	0.06315154257892873	2.141701299389393	0.2559910033184613	4.34381753993519e-08	-5.824051004339847e-08	-3.425925707663853e-07	5.413800048828975e-09	7.949091223477088e-08	-4.604874801302956e-07	-1.298706811958093e-07
0.09	-0.008275202394052559	0.1257193973370366	0.9310396201042862	0.2204841883031221	-0.2257027910807497	-0.2358178768122577	-0.3113711373926283	0.2631966479887432	0.2631966479887398	0.1185814926486828	0.1739936503528703	0.09934638171751202	0.06981434077035492	-0.07122820394865051	-0.1007871336814731	-0.05896277667066117	0.5747136708600772	-0.02309735318715039	0.1775062655165775	-0.4375786511709737	0.6806701666970441	0.6806701666970434	-0.1222180461849871	0.005709292350216785	0.2126901917778735	0.03164815065164423	0.06027229342190896	-0.06038656616902793	0.004468514935665758	-0.2190841724106651	0.09368869638848824	-0.05622996952480147	0.01641586484684491	-30.19524908196042	-14.33156116957375	-21.70565888359602	-2.085077338195038	-5.398129867599692	-614.714823939436	59.94848156338575	-0.6803836797924822	-0.9269109906590723	-0.6797036982679473	5.454937904812735	-0.2675912224664047	1.718076438441799	-3.960168874750508	6.5097506931701	6.509750693169453	-0.945295234661794	-0.007493862262892038	2.03612702536805	0.2478088023622246	3.390610830447316e-08	-6.669219449613571e-08	-2.835649243840556e-07	-5.587627254270326e-08	7.882349924308475e-08	-4.953873882005653e-07	-6.411573261917757e-08
